<svg xmlns="http://www.w3.org/2000/svg" width="512" height="512" viewBox="0 0 135.467 135.467"><g fill="#283c6b"><path d="M67.655 50.8A16.933 16.933 0 0050.8 67.733a16.933 16.933 0 0016.933 16.934 16.933 16.933 0 0016.934-16.934A16.933 16.933 0 0067.733 50.8a16.933 16.933 0 00-.078 0zm.078 8.467a8.467 8.467 0 018.467 8.466 8.467 8.467 0 01-8.467 8.467 8.467 8.467 0 01-8.466-8.467 8.467 8.467 0 018.466-8.466z"/><path d="M0 63.524v8.466h60.401a8.467 8.467 0 01-1.134-4.233 8.467 8.467 0 011.134-4.233zm75.065 0a8.467 8.467 0 011.135 4.233 8.467 8.467 0 01-1.135 4.233h60.402v-8.466z"/><path d="M80.982 59.27v6.545h8.74v-2.32a8.467 8.467 0 01-7.318-4.224h-1.422zM80.982 76.178v-6.544h8.74v2.32a8.467 8.467 0 00-7.318 4.224zM54.489 76.178v-6.544h-8.741v2.32a8.467 8.467 0 017.318 4.224zM54.489 59.315v6.545h-8.741v-2.32a8.467 8.467 0 007.318-4.225z"/></g></svg>