<svg xmlns="http://www.w3.org/2000/svg" width="512" height="512" viewBox="0 0 135.467 135.467"><g fill="#283c6b"><path d="M67.655 50.8A16.933 16.933 0 0050.8 67.733a16.933 16.933 0 0016.933 16.934 16.933 16.933 0 0016.934-16.934A16.933 16.933 0 0067.733 50.8a16.933 16.933 0 00-.078 0zm.078 8.467a8.467 8.467 0 018.467 8.466 8.467 8.467 0 01-8.467 8.467 8.467 8.467 0 01-8.466-8.467 8.467 8.467 0 018.466-8.466z"/><path d="M54.489 76.178v-6.544h-8.741v2.32a8.467 8.467 0 017.318 4.224zM54.489 59.315v6.545h-8.741v-2.32a8.467 8.467 0 007.318-4.225z"/><path d="M0 63.524h56.885v8.467H0z"/></g></svg>